<svg xmlns="http://www.w3.org/2000/svg" viewBox="0 0 1920 1080" role="img" aria-labelledby="title desc">
  <title id="title">Matrix movie style background</title>
  <desc id="desc">Dark city skyline with green code rain and cinematic glow.</desc>
  <defs>
    <linearGradient id="night" x1="0" y1="0" x2="0" y2="1">
      <stop offset="0%" stop-color="#020a06"/>
      <stop offset="100%" stop-color="#010402"/>
    </linearGradient>
    <radialGradient id="core" cx="50%" cy="28%" r="55%">
      <stop offset="0%" stop-color="#45ff95" stop-opacity="0.38"/>
      <stop offset="72%" stop-color="#45ff95" stop-opacity="0.06"/>
      <stop offset="100%" stop-color="#45ff95" stop-opacity="0"/>
    </radialGradient>
    <linearGradient id="fog" x1="0" y1="0" x2="0" y2="1">
      <stop offset="0%" stop-color="#0f251a" stop-opacity="0.46"/>
      <stop offset="100%" stop-color="#0f251a" stop-opacity="0"/>
    </linearGradient>
  </defs>

  <rect width="1920" height="1080" fill="url(#night)"/>
  <rect width="1920" height="1080" fill="url(#core)"/>
  <rect width="1920" height="1080" fill="url(#fog)"/>

  <g opacity="0.26" stroke="#80ffba" stroke-width="1">
    <line x1="120" y1="0" x2="120" y2="1080"/>
    <line x1="280" y1="0" x2="280" y2="1080"/>
    <line x1="420" y1="0" x2="420" y2="1080"/>
    <line x1="560" y1="0" x2="560" y2="1080"/>
    <line x1="700" y1="0" x2="700" y2="1080"/>
    <line x1="840" y1="0" x2="840" y2="1080"/>
    <line x1="980" y1="0" x2="980" y2="1080"/>
    <line x1="1120" y1="0" x2="1120" y2="1080"/>
    <line x1="1260" y1="0" x2="1260" y2="1080"/>
    <line x1="1400" y1="0" x2="1400" y2="1080"/>
    <line x1="1540" y1="0" x2="1540" y2="1080"/>
    <line x1="1680" y1="0" x2="1680" y2="1080"/>
    <line x1="1820" y1="0" x2="1820" y2="1080"/>
  </g>

  <g fill="#a7ffd0" fill-opacity="0.52" font-family="monospace" font-size="28" letter-spacing="4">
    <text x="86" y="66">0101010011010010010100101010010101</text>
    <text x="286" y="126">1010010100101010010010101001001010</text>
    <text x="486" y="86">0010101001010010100101001010010100</text>
    <text x="688" y="146">1100101010010100101001010010100101</text>
    <text x="886" y="102">0100101001010010101001010100101001</text>
    <text x="1088" y="132">1010010010101001010010101001010010</text>
    <text x="1288" y="90">0010101001010010100101001010010101</text>
    <text x="1490" y="146">1100101010010100101001010010100101</text>
    <text x="1688" y="102">0100101001010010101001010100101001</text>
  </g>

  <g fill="#030806">
    <rect x="0" y="760" width="120" height="320"/>
    <rect x="130" y="700" width="120" height="380"/>
    <rect x="260" y="660" width="92" height="420"/>
    <rect x="362" y="622" width="110" height="458"/>
    <rect x="480" y="640" width="86" height="440"/>
    <rect x="574" y="590" width="122" height="490"/>
    <rect x="708" y="670" width="118" height="410"/>
    <rect x="836" y="620" width="92" height="460"/>
    <rect x="936" y="576" width="128" height="504"/>
    <rect x="1078" y="626" width="110" height="454"/>
    <rect x="1200" y="674" width="106" height="406"/>
    <rect x="1316" y="610" width="100" height="470"/>
    <rect x="1424" y="560" width="144" height="520"/>
    <rect x="1576" y="640" width="104" height="440"/>
    <rect x="1688" y="600" width="98" height="480"/>
    <rect x="1794" y="650" width="126" height="430"/>
  </g>

  <g fill="#0a1712">
    <path d="M680 1020 L760 760 L860 760 L940 1020 Z"/>
    <path d="M970 1020 L1040 740 L1140 740 L1220 1020 Z"/>
    <path d="M1240 1020 L1310 770 L1400 770 L1480 1020 Z"/>
  </g>

  <ellipse cx="960" cy="980" rx="740" ry="92" fill="#3b9f66" fill-opacity="0.18"/>
</svg>
